<?xml version="1.0" standalone="no"?>
<!DOCTYPE svg PUBLIC "-//W3C//DTD SVG 20010904//EN"
 "http://www.w3.org/TR/2001/REC-SVG-20010904/DTD/svg10.dtd">
<svg version="1.0" xmlns="http://www.w3.org/2000/svg"
 width="1280.000000pt" height="1100.000000pt" viewBox="0 0 1280.000000 1100.000000"
 preserveAspectRatio="xMidYMid meet">
<g transform="translate(0.000000,1100.000000) scale(0.100000,-0.100000)"
fill="#000000" stroke="none">
<path d="M10723 10968 c2 -7 34 -57 71 -111 287 -424 294 -764 21 -1182 -282
-434 -644 -685 -1304 -905 -390 -130 -880 -255 -1806 -461 -247 -55 -504 -114
-570 -130 -823 -206 -1389 -511 -1677 -903 -112 -153 -199 -354 -232 -538 -38
-207 -50 -577 -22 -683 37 -137 119 -253 240 -340 60 -43 166 -98 174 -91 2 2
-10 30 -26 62 -134 268 -141 650 -21 1056 74 249 212 432 436 582 434 288
1032 436 2353 581 129 14 304 39 387 56 623 122 1351 444 2048 906 93 62 176
113 183 113 30 0 -30 -118 -123 -242 -304 -405 -1099 -952 -1860 -1280 -197
-85 -363 -144 -620 -219 -336 -98 -555 -188 -692 -285 -52 -37 -103 -95 -103
-118 0 -12 46 -6 215 29 594 120 1795 471 2250 658 863 353 1383 853 1512
1450 14 65 18 127 17 297 -1 230 -13 320 -55 407 -20 41 -61 74 -75 61 -3 -3
-16 -59 -29 -124 -52 -255 -126 -388 -222 -401 -22 -3 -43 -1 -46 4 -3 5 9 41
28 80 79 168 208 578 235 746 25 151 -2 321 -71 458 -57 115 -181 245 -314
331 -107 70 -312 162 -302 136z"/>
<path d="M11620 10004 c0 -3 17 -27 39 -53 62 -75 130 -179 176 -270 306 -611
-14 -1240 -940 -1843 -322 -210 -778 -443 -1200 -613 -66 -27 -124 -52 -130
-57 -6 -5 14 -6 45 -3 288 29 378 39 530 61 427 62 827 163 1190 301 80 30
190 71 244 90 135 47 271 117 412 212 383 256 630 560 742 913 34 107 72 313
72 390 0 70 -33 228 -64 311 -115 305 -451 508 -926 557 -109 11 -190 13 -190
4z"/>
<path d="M10040 8229 c-75 -46 -394 -200 -560 -271 -428 -183 -1035 -387
-1575 -528 -492 -129 -801 -264 -1085 -476 -333 -247 -555 -604 -586 -942 l-7
-72 68 -30 c37 -16 70 -30 74 -30 4 0 5 31 3 68 -8 132 30 291 95 401 129 218
494 460 1088 724 216 95 353 150 749 298 695 260 1157 465 1474 653 113 67
253 168 286 204 24 27 20 27 -24 1z"/>
<path d="M4430 6304 c-1078 -50 -1748 -157 -2091 -335 -121 -63 -219 -160
-219 -217 0 -47 44 -114 119 -181 123 -110 179 -171 250 -276 139 -204 251
-419 329 -632 95 -256 321 -804 775 -1878 189 -447 257 -619 296 -750 72 -242
81 -284 91 -435 16 -213 57 -335 146 -430 70 -75 157 -113 349 -155 382 -83
689 -115 1090 -115 461 0 896 50 1362 155 246 55 229 48 273 118 78 123 160
344 160 432 0 43 16 60 77 84 133 52 291 142 380 217 54 46 73 54 73 29 0 -40
147 -77 385 -95 171 -13 304 -32 500 -71 154 -30 401 -92 412 -103 19 -18 -30
-27 -198 -37 -138 -7 -236 -7 -394 3 -115 7 -282 13 -370 13 -141 0 -168 -3
-226 -23 -37 -13 -84 -38 -105 -56 -39 -34 -39 -34 -14 -40 14 -3 186 -21 382
-40 197 -19 363 -38 368 -41 18 -11 -5 -30 -82 -66 l-73 -34 -275 3 c-422 5
-720 -31 -720 -88 0 -16 52 -38 135 -55 65 -15 133 -18 368 -18 287 1 288 0
285 -20 -4 -28 -58 -64 -126 -83 -29 -9 -51 -18 -48 -21 8 -9 360 16 536 38
654 81 1352 297 1673 517 46 32 117 106 117 122 0 5 -25 37 -55 71 -63 70 -75
110 -50 158 9 18 23 35 32 38 24 9 78 -25 148 -94 255 -253 95 -480 -473 -672
-673 -227 -2212 -439 -3877 -533 -296 -17 -1363 -17 -1650 0 -1093 64 -1939
161 -2680 308 -392 78 -745 182 -915 269 -173 90 -323 237 -356 351 -31 108
24 212 147 275 39 19 42 19 60 3 34 -31 24 -57 -39 -100 -92 -63 -82 -100 53
-189 243 -162 712 -321 1310 -445 356 -73 656 -111 860 -109 l90 1 -60 12
c-110 23 -238 76 -221 93 3 4 151 7 329 8 262 1 335 5 391 18 81 19 97 30 75
52 -46 46 -289 72 -796 83 -203 5 -298 11 -300 18 -11 32 219 95 457 124 290
35 328 42 346 55 17 12 15 14 -16 34 -49 30 -90 40 -200 52 -112 12 -217 6
-560 -28 -274 -27 -419 -27 -536 1 -85 21 -144 46 -144 61 0 22 192 95 370
140 105 26 189 39 360 55 63 6 214 22 335 36 121 13 245 27 275 31 80 8 91 17
50 38 -50 26 -86 35 -179 45 -158 17 -452 -16 -696 -80 -122 -31 -272 -52
-535 -74 -213 -18 -288 -22 -297 -13 -13 14 62 77 138 117 272 141 778 223
1468 237 l303 6 -4 58 c-6 87 -59 184 -122 226 -67 46 -97 52 -322 64 -553 29
-1194 -48 -1834 -222 -555 -151 -860 -299 -1012 -492 -36 -45 -88 -167 -88
-206 0 -31 39 -136 69 -184 31 -51 149 -160 226 -209 333 -215 995 -397 2270
-623 484 -86 712 -128 805 -150 356 -84 1267 -155 1975 -155 360 0 1409 27
1585 40 318 24 384 36 1190 210 655 142 744 161 1385 290 489 99 608 128 805
195 329 113 549 256 634 415 23 43 30 71 34 133 4 74 3 82 -31 150 -111 224
-472 420 -1032 561 -687 172 -1350 193 -1542 49 -48 -35 -58 -59 -38 -90 35
-52 157 -85 388 -103 301 -23 561 -103 805 -246 92 -55 112 -80 70 -88 -134
-27 -351 0 -708 89 -206 51 -306 70 -455 86 -129 14 -345 6 -455 -16 -41 -8
-76 -15 -77 -15 -10 0 1 28 26 63 15 23 43 71 60 106 38 74 100 139 191 200
36 23 200 109 365 191 520 257 793 441 1046 707 375 395 475 790 314 1240 -51
143 -114 242 -225 354 -79 79 -110 103 -180 137 -112 55 -196 76 -285 70 -182
-12 -278 -114 -386 -409 -47 -129 -71 -180 -107 -226 -28 -38 -87 -77 -101
-68 -6 3 8 57 34 129 113 319 166 571 136 649 -8 20 -23 29 -68 42 -127 36
-227 79 -221 96 2 5 56 28 121 49 314 105 466 241 442 394 -26 158 -214 272
-630 382 -286 75 -769 128 -1510 165 l-220 11 -72 -75 c-80 -84 -118 -147
-109 -182 9 -37 54 -47 291 -65 299 -23 1281 -66 1306 -58 37 12 -617 143
-943 188 -78 11 -143 22 -145 24 -19 19 407 10 669 -14 456 -42 748 -123 847
-236 42 -48 40 -67 -14 -104 -332 -228 -1455 -349 -2885 -311 -1800 48 -2740
168 -2853 362 -19 32 -20 41 -9 75 7 22 21 50 32 64 l21 25 17 -25 c35 -53 89
-98 128 -109 50 -13 111 2 182 47 146 93 562 132 1429 132 l461 0 6 58 c12 99
-15 192 -69 242 l-27 25 -236 1 c-130 0 -266 -1 -302 -2z m-1997 -445 c12 -7
42 -30 66 -52 108 -99 472 -233 901 -333 85 -20 157 -38 159 -40 27 -27 -199
-49 -414 -41 -236 9 -387 40 -531 108 -136 64 -216 164 -231 288 -9 77 3 94
50 70z m362 -474 c842 -140 1681 -244 2230 -275 433 -25 1204 -1 2160 66 291
20 304 21 306 9 7 -37 -301 -111 -616 -149 -433 -52 -920 -70 -1665 -62 -717
7 -1106 28 -1539 82 -336 42 -552 86 -746 154 -144 51 -265 129 -265 171 0 23
15 24 135 4z m713 -435 c359 -41 661 -85 790 -115 138 -33 257 -72 272 -91 11
-12 -17 -14 -211 -14 -123 0 -300 7 -394 15 -338 30 -770 76 -792 85 -20 9
-23 17 -23 73 0 35 3 67 7 70 11 12 78 8 351 -23z m57 -245 c268 -50 435 -74
620 -89 178 -14 225 -29 256 -80 35 -57 23 -60 -231 -53 -124 4 -333 15 -465
26 -132 11 -310 25 -395 32 -208 16 -200 12 -200 98 0 61 3 72 22 85 39 28
180 21 393 -19z m5892 -127 c68 -25 164 -96 204 -150 129 -176 113 -416 -43
-650 -119 -177 -432 -472 -839 -790 -95 -74 -97 -75 -168 -82 -200 -18 -424
-144 -660 -371 -100 -96 -259 -279 -330 -377 -37 -51 -57 -62 -45 -25 9 30
862 1876 879 1903 7 11 42 31 77 44 67 24 102 55 253 225 80 91 208 189 312
240 131 66 245 76 360 33z m-5935 -158 c773 -89 780 -90 927 -149 60 -25 80
-49 36 -44 -59 7 -454 2 -611 -6 -120 -7 -202 -7 -242 0 -66 10 -265 65 -347
96 l-50 19 -3 57 c-2 45 0 57 12 57 8 0 134 -14 278 -30z m-2 -309 c158 -15
442 -28 845 -42 187 -6 344 -15 349 -20 13 -12 -20 -58 -50 -70 -16 -5 -268
-8 -651 -7 l-626 3 -29 68 c-16 37 -26 73 -22 78 3 6 20 8 38 5 17 -3 83 -10
146 -15z m883 -296 c136 -35 278 -103 285 -135 2 -13 -77 -15 -605 -15 l-608
0 -42 70 c-23 38 -39 73 -36 78 3 4 168 5 366 2 208 -4 390 -2 427 3 98 14
150 14 213 -3z m-214 -300 c283 -24 519 -49 524 -54 16 -16 -47 -67 -106 -87
-46 -15 -99 -17 -481 -16 -236 0 -432 5 -436 9 -16 20 -110 175 -110 182 0 5
5 11 11 13 12 4 -34 8 598 -47z m-253 -270 c568 -72 672 -88 716 -111 34 -17
35 -25 7 -50 -19 -18 -42 -19 -283 -22 -143 -1 -335 1 -426 5 l-165 8 -43 87
c-42 84 -46 108 -18 108 8 0 103 -11 212 -25z m828 -335 c114 -43 153 -92 102
-125 -19 -12 -61 -19 -153 -25 -142 -9 -722 6 -757 20 -25 9 -100 125 -91 140
4 6 156 10 425 10 397 0 422 -1 474 -20z m-179 -286 c646 -24 660 -25 660 -49
0 -41 -129 -95 -274 -115 -104 -15 -424 -30 -623 -30 l-168 0 -41 52 c-70 89
-101 138 -95 153 3 10 19 13 58 9 29 -2 247 -11 483 -20z m49 -280 c612 -28
591 -26 591 -48 0 -46 -207 -124 -390 -146 -106 -13 -464 -16 -540 -4 -38 5
-46 11 -52 33 -3 14 -19 57 -35 95 -15 38 -28 73 -28 77 0 12 74 11 454 -7z
m36 -354 c151 -11 316 -22 365 -26 115 -7 135 -11 135 -29 0 -20 -113 -73
-200 -92 -102 -22 -391 -22 -560 1 -173 23 -160 15 -160 95 0 37 3 71 8 75 4
5 36 5 72 2 36 -3 189 -15 340 -26z m210 -290 c250 -17 464 -34 475 -39 19 -8
19 -9 -5 -20 -39 -17 -245 -49 -397 -62 -239 -20 -455 5 -557 65 -92 54 -101
101 -19 91 27 -3 253 -19 503 -35z m-140 -260 c246 -38 735 -83 1405 -131 211
-15 225 -28 75 -68 -298 -81 -850 -86 -1465 -15 -154 17 -341 42 -373 50 -19
4 -35 30 -78 121 -35 75 -51 119 -44 123 6 4 88 -9 183 -27 95 -18 228 -42
297 -53z"/>
<path d="M9300 4217 c-41 -24 -112 -66 -156 -94 -45 -28 -142 -84 -216 -123
-151 -80 -218 -137 -294 -252 -80 -119 -160 -321 -210 -523 -36 -148 -39 -144
69 -85 50 27 175 94 276 148 219 116 263 152 315 257 27 58 56 96 110 149 86
85 152 175 205 282 62 125 78 215 45 262 -23 33 -60 28 -144 -21z"/>
<path d="M2900 360 c152 -56 558 -153 895 -214 472 -85 1072 -141 1515 -141
274 0 457 12 1190 75 472 42 1136 131 1160 157 3 3 -17 3 -45 -1 -674 -84
-2059 -73 -3570 29 -434 30 -988 82 -1170 110 -17 3 -6 -4 25 -15z"/>
</g>
</svg>
